<?xml version="1.0" standalone="no"?><!DOCTYPE svg PUBLIC "-//W3C//DTD SVG 1.1//EN" "http://www.w3.org/Graphics/SVG/1.1/DTD/svg11.dtd"><svg class="icon" width="200px" height="200.00px" viewBox="0 0 1024 1024" version="1.1" xmlns="http://www.w3.org/2000/svg"><path d="M557.1 361.3v-7.4l-22.9 1.6c-6.5 0.4-11.4 1.8-14.7 4.1-3.3 2.4-4.9 5.6-4.9 9.8 0 4.1 1.6 7.3 4.9 9.7 3.2 2.4 7.6 3.6 13 3.6 3.5 0 6.7-0.5 9.7-1.6 3-1.1 5.6-2.5 7.8-4.4 2.2-1.9 3.9-4.1 5.2-6.7 1.3-2.7 1.9-5.6 1.9-8.7zM512 64.2C262.1 64.2 64.2 262.1 64.2 512S262.1 959.8 512 959.8 959.8 761.9 959.8 512 761.9 64.2 512 64.2z m86.9 265.4c2.1-5.9 5.1-11 9-15.3 3.9-4.2 8.5-7.5 13.9-9.8s11.5-3.4 18.2-3.4c6 0 11.5 0.9 16.3 2.7 4.9 1.8 9 4.2 12.5 7.3 3.5 3 6.2 6.6 8.3 10.6 2 4.1 3.2 8.4 3.6 12.9h-18c-0.5-2.5-1.3-4.8-2.4-6.9-1.2-2.1-2.7-4-4.6-5.6-1.9-1.6-4.2-2.8-6.7-3.7-2.6-0.9-5.5-1.3-8.7-1.3-3.8 0-7.3 0.8-10.4 2.3-3.1 1.5-5.8 3.7-8 6.5s-3.9 6.2-5.1 10.3c-1.2 4-1.8 8.5-1.8 13.4 0 5.1 0.6 9.7 1.8 13.7 1.2 4 2.9 7.4 5.2 10.2 2.2 2.8 4.9 4.9 8.1 6.4 3.1 1.5 6.6 2.2 10.3 2.2 6.2 0 11.2-1.4 15-4.3 3.9-2.9 6.4-7.1 7.6-12.7h18c-0.5 4.9-1.9 9.4-4.1 13.5-2.2 4.1-5.1 7.5-8.5 10.4-3.5 2.9-7.6 5.1-12.4 6.6-4.7 1.6-10 2.4-15.6 2.4-6.7 0-12.8-1.1-18.3-3.3-5.4-2.2-10.1-5.4-14-9.6-3.9-4.2-6.9-9.2-9-15.2-2.1-6-3.2-12.7-3.2-20.2-0.1-7.5 0.9-14.1 3-20.1z m-255.8-27.2h18v16h0.3c1.1-2.7 2.5-5.1 4.3-7.1 1.8-2.1 3.8-3.9 6.1-5.4 2.3-1.5 4.9-2.6 7.6-3.4 2.8-0.8 5.7-1.2 8.8-1.2 6.6 0 12.2 1.6 16.7 4.7 4.6 3.2 7.8 7.7 9.7 13.6h0.5c1.2-2.8 2.8-5.4 4.8-7.6 2-2.2 4.2-4.2 6.8-5.8 2.5-1.6 5.4-2.8 8.4-3.6 3-0.8 6.2-1.3 9.6-1.3 4.6 0 8.8 0.7 12.6 2.2 3.8 1.5 7 3.6 9.7 6.3 2.7 2.7 4.8 6 6.2 9.8 1.4 3.8 2.2 8.1 2.2 12.8v64.3h-18.8V337c0-6.2-1.6-11-4.8-14.4-3.2-3.4-7.7-5.1-13.6-5.1-2.9 0-5.5 0.5-8 1.5-2.4 1-4.5 2.4-6.2 4.3-1.7 1.8-3.1 4-4.1 6.6-1 2.5-1.5 5.3-1.5 8.4v58.6H400v-61.4c0-2.7-0.4-5.2-1.3-7.4-0.8-2.2-2-4.1-3.6-5.7-1.6-1.6-3.5-2.8-5.7-3.6-2.2-0.8-4.7-1.3-7.5-1.3-2.9 0-5.6 0.5-8.1 1.6s-4.6 2.6-6.3 4.5c-1.8 1.9-3.2 4.2-4.1 6.8-0.9 2.6-2.5 5.4-2.5 8.5v57.9h-17.8v-94.4zM384 754.3c-82.6 0-134.3-57.4-134.3-148.9S301.4 456.3 384 456.3s134.1 57.6 134.1 149.1S466.5 754.3 384 754.3z m152.8-357.7c-3 0.8-6.2 1.2-9.3 1.2-4.7 0-9-0.7-12.9-2-3.9-1.3-7.3-3.2-10.1-5.7-2.8-2.4-5-5.4-6.6-8.8-1.6-3.5-2.4-7.3-2.4-11.5 0-8.3 3.1-14.8 9.3-19.4 6.2-4.7 15.1-7.4 26.8-8.1l25.5-1.5v-7.3c0-5.4-1.7-9.6-5.2-12.4-3.5-2.8-8.3-4.3-14.7-4.3-2.5 0-4.9 0.3-7.1 0.9-2.2 0.6-4.1 1.6-5.8 2.7-1.7 1.2-3.1 2.6-4.2 4.3-1.1 1.6-1.9 3.5-2.3 5.5h-17.7c0.1-4.2 1.1-8 3.1-11.6s4.6-6.6 7.9-9.2 7.3-4.6 11.8-6.1c4.5-1.4 9.5-2.2 14.8-2.2 5.7 0 10.9 0.7 15.6 2.2 4.7 1.5 8.7 3.5 12 6.2 3.3 2.7 5.8 5.9 7.6 9.7 1.8 3.8 2.7 8.1 2.7 12.7v64.8h-18V381h-0.5c-1.3 2.5-3 4.9-5.1 6.9-2.1 2.1-4.4 3.8-6.9 5.3-2.4 1.5-5.2 2.6-8.3 3.4z m118.8 357.7c-63 0-105.8-33-108.7-84.8h41c3.2 29.6 31.8 49.2 71 49.2 37.6 0 64.6-19.6 64.6-46.4 0-23.2-16.4-37.2-54.4-46.8l-37-9.2c-53.2-13.2-77.4-37.4-77.4-77.2 0-49 42.8-83 103.7-83 59.6 0 101.1 34.2 102.7 83.4h-40.6c-2.8-29.6-27-47.8-63-47.8-35.8 0-60.6 18.4-60.6 45 0 21 15.6 33.4 53.6 43l31.2 7.8c59.4 14.4 83.8 37.8 83.8 79.8 0 53.6-42.3 87-109.9 87zM384 493c-56.6 0-91.9 43.4-91.9 112.3 0 68.8 35.4 112.1 91.9 112.1 56.4 0 91.9-43.4 91.9-112.1 0-68.9-35.6-112.3-91.9-112.3z" fill="#1296DB" /></svg>